<svg width="24" height="24" viewBox="0 0 24 24" fill="none" xmlns="http://www.w3.org/2000/svg">
<circle cx="12" cy="12" r="12" fill="white"/>
<path d="M7.5895 16.179C10.1242 16.179 12.179 14.1242 12.179 11.5895C12.179 9.05479 10.1242 7 7.5895 7C5.05479 7 3 9.05479 3 11.5895C3 14.1242 5.05479 16.179 7.5895 16.179Z" stroke="black" stroke-linecap="round" stroke-linejoin="round"/>
<path d="M15.6211 16.179C16.8144 16.179 17.7817 14.1242 17.7817 11.5895C17.7817 9.05479 16.8144 7 15.6211 7C14.4278 7 13.4604 9.05479 13.4604 11.5895C13.4604 14.1242 14.4278 16.179 15.6211 16.179Z" stroke="black" stroke-linecap="round" stroke-linejoin="round"/>
<path d="M20.0099 16.179C20.5326 16.179 20.9564 14.1242 20.9564 11.5895C20.9564 9.05479 20.5326 7 20.0099 7C19.4872 7 19.0635 9.05479 19.0635 11.5895C19.0635 14.1242 19.4872 16.179 20.0099 16.179Z" stroke="black" stroke-linecap="round" stroke-linejoin="round"/>
</svg>
