<svg width="24" height="24" viewBox="0 0 24 24" fill="none" xmlns="http://www.w3.org/2000/svg">
<circle cx="12" cy="12" r="12" fill="white"/>
<path d="M20.25 6.24997C19.5318 6.75658 18.7366 7.14406 17.895 7.39747C17.4433 6.87811 16.843 6.50999 16.1753 6.34292C15.5076 6.17584 14.8046 6.21787 14.1616 6.46331C13.5185 6.70876 12.9663 7.14577 12.5797 7.71526C12.1931 8.28475 11.9908 8.95923 12 9.64747V10.3975C10.682 10.4316 9.37596 10.1393 8.19826 9.54656C7.02056 8.95378 6.00774 8.07895 5.25 6.99997C5.25 6.99997 2.25 13.75 9 16.75C7.4554 17.7984 5.61537 18.3242 3.75 18.25C10.5 22 18.75 18.25 18.75 9.62497C18.7493 9.41606 18.7292 9.20767 18.69 9.00247C19.4555 8.24759 19.9956 7.29451 20.25 6.24997Z" stroke="black" stroke-linecap="round" stroke-linejoin="round"/>
</svg>
